# Blender v2.78 (sub 0) OBJ File: 'Carnby_textured.blend'
# www.blender.org
mtllib Cripple.mtl
o Dummy
v -1.742083 4.318341 0.173578
v -1.615463 4.246398 0.332797
v -1.531715 4.239201 0.180927
v -1.830960 4.142477 0.114651
v -1.558652 4.092953 0.534801
v -1.529875 4.129725 0.108451
v -1.583325 3.608220 0.448891
v 1.745639 4.318341 0.173578
v 1.619020 4.246398 0.332797
v 1.535271 4.239201 0.180927
v 1.834516 4.142477 0.114651
v 1.562208 4.092953 0.534801
v 1.533431 4.129726 0.108451
v 1.586881 3.608220 0.448891
v 0.014185 8.749440 0.470860
v -0.338256 8.993257 0.555414
v 0.355479 8.993257 0.555414
v -0.505449 9.419912 0.389774
v 0.533792 9.419912 0.389774
v -0.332106 9.893005 0.360664
v 0.360476 9.893005 0.360664
v 0.014185 9.827174 0.516011
v -0.191088 9.522985 0.555414
v 0.206616 9.522985 0.555414
v -0.447176 9.802555 0.310348
v 0.475955 9.801072 0.310348
v 0.016885 9.470688 0.594945
v 0.016885 9.419307 0.612613
v 0.016885 9.554307 0.834650
v 0.015229 7.939789 0.506329
v 0.014185 10.150673 0.017314
v 0.379937 9.921779 -0.383549
v -0.351567 9.957067 -0.421466
v 0.003085 9.335750 -0.585154
v 0.461812 9.432676 -0.244003
v -0.434623 9.432676 -0.229257
v 0.003233 8.972157 -0.326025
v -0.171967 8.765570 0.068241
v 0.202625 8.748304 0.054080
v 0.003233 8.763115 -0.432927
v -1.542898 8.160944 -0.446816
v 1.539436 8.160944 -0.455795
v 0.030772 5.537800 0.788557
v 0.003233 8.253242 -0.927587
v 0.003233 5.642365 -0.658925
v 1.161196 5.273724 -0.631711
v -1.145834 5.228265 -0.631711
v 0.003233 6.447260 -0.363755
v -0.868167 6.387167 -0.104593
v 0.874116 6.403284 -0.107286
v -1.131896 7.610712 0.318650
v 1.128433 7.610712 0.312065
v -0.406788 8.294233 0.333261
v 0.437446 8.255323 0.301346
v -0.734057 6.297323 0.513084
v 0.789423 6.297323 0.513084
v -1.105293 7.334033 -0.604841
v -0.932455 8.005703 -0.813439
v 0.933788 8.010061 -0.819067
v 1.100138 7.382869 -0.607070
v 0.912507 5.268824 0.647646
v -0.897145 5.233165 0.647647
v -1.837635 6.326976 -0.497608
v -1.468511 6.388584 0.097156
v -1.229366 6.223730 -0.674083
v -1.910576 4.393883 0.110009
v -1.594028 4.214025 0.586606
v -1.384656 4.196033 0.132007
v 1.841191 6.326976 -0.497608
v 1.472067 6.388584 0.097156
v 1.232922 6.223730 -0.674083
v 1.914132 4.393882 0.110009
v 1.597584 4.214025 0.586606
v 1.388212 4.196033 0.132007
v 0.021808 4.895164 0.539321
v 0.000078 4.847381 -0.635407
v -1.117992 4.524437 0.093060
v 1.158817 4.524437 0.093060
v -0.876096 2.723802 -0.437942
v -0.937974 2.763882 0.271554
v -0.252368 2.691583 0.217363
v -0.671834 0.378164 -0.436534
v -0.775256 0.376450 -0.062702
v -0.298175 0.337100 -0.039922
v -0.305273 0.355008 -0.413442
v -0.841220 0.857135 -0.154940
v -0.825245 0.211461 0.645947
v -0.226998 0.193331 0.675461
v -0.671834 0.102840 -0.467794
v -0.305273 0.124226 -0.444703
v -0.845654 0.113821 0.668470
v -0.191798 0.117607 0.713460
v 0.916921 2.723802 -0.437942
v 0.978799 2.763882 0.271554
v 0.293193 2.691583 0.217363
v 0.712659 0.378164 -0.436534
v 0.816081 0.376450 -0.062702
v 0.339000 0.337100 -0.039922
v 0.346099 0.355008 -0.413442
v 0.882045 0.857135 -0.154940
v 0.866070 0.211461 0.645947
v 0.267823 0.193331 0.675461
v 0.712659 0.102840 -0.467794
v 0.346099 0.124226 -0.444703
v 0.886479 0.113821 0.668470
v 0.232623 0.117607 0.713460
v 0.025312 8.706919 0.134480
v 0.363156 8.763905 0.134480
v 0.559801 8.433357 0.262440
v -0.369517 8.845834 0.142990
v -0.512124 8.468597 0.338411
v -0.209480 8.624632 0.178076
v 0.242849 8.615631 0.144943
v 0.363156 8.821163 0.175508
v -0.369517 8.773758 0.184017
v 0.280832 8.628533 0.244304
v -0.248586 8.639069 0.283084
v 0.616217 9.656729 0.091980
v -0.590006 9.653030 0.099238
v 0.534678 9.923659 -0.040831
v -0.507225 9.924129 -0.035748
v 0.626613 9.714684 0.179637
v -0.598800 9.715672 0.187704
v 0.014185 10.033833 0.463409
v -0.365835 9.809153 0.364906
v -0.098728 9.821819 0.471114
v -0.354975 9.669904 0.426669
v -0.095986 9.663915 0.537159
v 0.129088 9.821361 0.470359
v 0.392544 9.808029 0.365686
v 0.116531 9.665388 0.536968
v 0.377637 9.669178 0.426539
v -0.363242 9.775904 0.379653
v -0.097935 9.776165 0.490209
v 0.125657 9.778751 0.488556
v 0.388885 9.773952 0.380621
v -0.364636 9.793770 0.371729
v -0.098142 9.788076 0.485228
v 0.126668 9.791306 0.483195
v 0.390760 9.791418 0.372966
v -0.265371 9.742819 0.434076
v -0.259482 9.699633 0.454281
v -0.206482 9.699633 0.476387
v -0.204519 9.748708 0.457038
v 0.229297 9.746743 0.457910
v 0.225371 9.709448 0.474223
v 0.276408 9.709450 0.452929
v 0.280334 9.744782 0.437388
v -0.244232 9.734844 0.446170
v -0.241392 9.714966 0.455523
v -0.251805 9.713072 0.451958
v -0.255592 9.734846 0.441431
v 0.268851 9.733898 0.446462
v 0.267905 9.719698 0.452444
v 0.258438 9.719700 0.456393
v 0.259385 9.735790 0.449667
v -0.141235 9.162535 0.583875
v 0.014797 9.220200 0.590329
v 0.160654 9.155751 0.583116
v 0.371299 10.038965 -0.053203
v -0.342167 10.056084 -0.043697
v -0.618270 8.291834 0.588147
v 0.564459 8.232661 0.547610
v -0.522568 8.242502 0.363132
v 0.536166 8.229234 0.350003
v 0.023000 6.738795 0.795384
v -0.144021 6.638919 0.786570
v -0.479237 6.447091 0.674587
v 0.195023 6.635375 0.772068
v 0.516196 6.454515 0.669992
v 0.023951 5.251315 0.618401
v 0.025832 5.251352 -0.800014
vn 0.8298 -0.2983 0.4717
vn -0.0059 0.3204 -0.9473
vn -0.7375 0.4216 0.5277
vn 0.9962 -0.0617 0.0619
vn -0.0403 -0.5433 -0.8386
vn -0.8408 -0.0527 0.5387
vn -0.8297 -0.2983 0.4717
vn -0.2313 0.5398 -0.8094
vn 0.7385 0.1532 0.6566
vn -0.9962 -0.0617 0.0619
vn 0.0403 -0.5433 -0.8386
vn 0.8408 -0.0527 0.5387
vn 0.8836 0.4576 0.0991
vn 0.2313 0.5397 -0.8094
vn -0.7385 0.1532 0.6566
vn -0.8836 0.4576 0.0991
vn 0.0059 0.3204 -0.9473
vn 0.7375 0.4216 0.5277
vn 0.0000 -0.3277 0.9448
vn -0.6003 0.2492 0.7600
vn 0.7324 0.5202 0.4393
vn 0.4889 0.1804 0.8535
vn -0.3704 0.1949 0.9082
vn 0.3707 0.1936 0.9084
vn 0.3124 -0.8969 0.3129
vn -0.7048 0.5358 0.4648
vn -0.9096 -0.4000 -0.1123
vn 0.9010 -0.4195 -0.1108
vn -0.6569 -0.5074 -0.5577
vn 0.6111 -0.4991 -0.6144
vn -0.2874 -0.9044 0.3155
vn -0.5039 0.1785 0.8451
vn 0.5808 0.2496 0.7748
vn -0.5521 0.2621 0.7915
vn 0.5493 0.2543 0.7960
vn -0.0975 0.3236 0.9411
vn 0.1068 0.3233 0.9402
vn 0.4243 0.8760 0.2294
vn -0.2098 0.9471 -0.2430
vn 0.2246 0.9202 -0.3206
vn 0.0662 0.8913 -0.4485
vn 0.0634 0.2879 -0.9555
vn -0.6191 0.7633 -0.1847
vn 0.5697 0.7791 -0.2615
vn -0.6619 0.6639 0.3480
vn -0.9067 -0.0109 -0.4216
vn 0.9012 0.0275 -0.4325
vn 0.9088 0.0733 -0.4107
vn 0.6088 -0.1218 -0.7840
vn -0.6441 -0.1712 -0.7455
vn 0.5887 -0.4690 -0.6584
vn -0.6202 -0.4554 -0.6387
vn -0.2343 0.0651 0.9700
vn 0.2522 0.0709 0.9651
vn 0.9634 -0.2615 0.0587
vn 0.8877 -0.4471 -0.1098
vn -0.9650 -0.2495 0.0807
vn -0.8823 -0.4576 -0.1104
vn 0.9567 0.1774 -0.2308
vn 0.6720 0.6570 0.3417
vn -0.9256 0.1009 -0.3649
vn -0.6687 0.6576 0.3470
vn 0.6727 0.6563 0.3416
vn 0.7117 0.2452 0.6583
vn -0.6909 0.2463 0.6797
vn -0.9577 0.1812 -0.2235
vn -0.4243 0.8760 0.2294
vn 0.3616 0.2300 0.9035
vn -0.3616 0.2300 0.9035
vn -0.3599 0.3547 0.8629
vn 0.3619 0.3413 0.8675
vn 0.5364 0.7914 0.2931
vn -0.2966 0.8831 0.3635
vn -0.5830 0.7483 0.3163
vn 0.3399 0.8841 0.3207
vn -0.1406 0.3288 -0.9339
vn -0.1448 0.3407 -0.9290
vn 0.1305 0.3414 -0.9308
vn -0.0376 -0.2978 -0.9539
vn 0.0334 -0.2978 -0.9540
vn 0.5347 -0.1399 -0.8334
vn -0.5337 -0.1225 -0.8367
vn 0.4981 0.5562 0.6652
vn -0.4959 0.5567 0.6664
vn 0.0076 0.4872 0.8732
vn 0.6887 0.6384 0.3436
vn -0.4643 -0.1511 0.8727
vn 0.4420 -0.1191 0.8891
vn -0.2598 0.6547 -0.7098
vn 0.2556 0.6646 -0.7021
vn 0.0515 -0.3075 -0.9502
vn 0.2007 0.1507 0.9680
vn -0.1972 0.1527 0.9684
vn -0.2300 0.0639 -0.9711
vn -0.8311 0.1310 0.5404
vn -0.3106 -0.2743 -0.9101
vn -0.7873 0.1783 0.5902
vn 0.2287 0.0598 -0.9717
vn 0.8288 0.1377 0.5423
vn 0.3106 -0.2743 -0.9101
vn 0.8429 0.1900 0.5034
vn 0.1429 -0.3813 -0.9134
vn -0.0246 -0.2907 -0.9565
vn -0.2635 0.0893 -0.9605
vn -0.8489 0.1222 0.5142
vn 0.9081 0.0414 0.4166
vn -0.0971 -0.3612 -0.9274
vn -0.8429 0.1900 0.5034
vn 0.2641 0.0858 -0.9607
vn 0.8486 0.1279 0.5134
vn -0.9081 0.0414 0.4166
vn 0.0971 -0.3612 -0.9274
vn 0.7873 0.1783 0.5902
vn -0.5217 -0.0318 0.8526
vn 0.4996 0.0036 0.8663
vn -0.1251 -0.3675 -0.9216
vn 0.1311 0.3432 -0.9301
vn -0.6928 0.6456 0.3214
vn -0.3668 0.2716 0.8898
vn -0.0182 -0.5103 0.8598
vn -0.9698 0.1552 0.1879
vn 0.0352 -0.2168 0.9756
vn 0.9656 0.1792 0.1884
vn 0.0620 -0.1518 0.9865
vn 0.0607 -0.1513 0.9866
vn -0.9908 -0.1094 -0.0802
vn -0.9911 -0.1122 -0.0709
vn -0.0299 -0.0803 -0.9963
vn 0.0668 -0.1097 0.9917
vn -0.9959 -0.0315 -0.0851
vn -0.9080 -0.0793 -0.4113
vn 0.0632 0.0049 -0.9980
vn -0.0620 -0.1518 0.9865
vn -0.0572 -0.1497 0.9871
vn 0.9908 -0.1094 -0.0802
vn 0.9894 -0.1026 -0.1028
vn 0.0321 -0.0788 -0.9964
vn -0.0668 -0.1097 0.9917
vn 0.9959 -0.0315 -0.0851
vn 0.9080 -0.0793 -0.4113
vn -0.0632 0.0049 -0.9980
vn 0.0373 -0.5110 0.8588
vn -0.0279 -0.2165 0.9759
vn 0.0690 0.9705 0.2308
vn 0.0707 0.1339 -0.9885
vn 0.0571 -0.9982 0.0184
vn -0.9634 0.0302 -0.2664
vn 0.9080 0.4190 -0.0061
vn -0.9775 -0.1502 -0.1481
vn -0.9796 0.1995 -0.0226
vn -0.0646 0.4234 0.9036
vn 0.9842 0.1489 -0.0956
vn 0.9998 0.0026 -0.0189
vn -0.0409 0.2327 0.9717
vn 0.0201 0.9806 0.1951
vn 0.0559 0.1126 -0.9921
vn 0.0062 -1.0000 -0.0063
vn -0.0690 0.9705 0.2308
vn -0.0707 0.1339 -0.9885
vn -0.0571 -0.9982 0.0184
vn 0.9634 0.0302 -0.2664
vn -0.9080 0.4190 -0.0061
vn 0.9775 -0.1502 -0.1481
vn 0.9796 0.1995 -0.0226
vn 0.0646 0.4234 0.9036
vn -0.9842 0.1489 -0.0956
vn -0.9998 0.0026 -0.0189
vn 0.0409 0.2327 0.9717
vn -0.0201 0.9806 0.1951
vn -0.0559 0.1126 -0.9921
vn -0.0062 -1.0000 -0.0063
vn 0.1114 0.4323 0.8948
vn -0.1230 0.5322 0.8376
vn 0.2465 0.5258 0.8142
vn -0.0027 0.4362 0.8998
vn -0.0491 -0.0060 0.9988
vn 0.2816 0.2287 0.9319
vn 0.1315 -0.0048 0.9913
vn -0.1980 0.2295 0.9529
vn 0.2637 0.2273 0.9374
vn -0.1872 0.2287 0.9553
vn -0.4967 0.1380 0.8569
vn 0.4811 0.1352 0.8662
vn -0.5477 0.3032 0.7798
vn 0.0000 -0.1112 0.9938
vn -0.9050 -0.4088 -0.1178
vn 0.9176 -0.3870 -0.0907
vn -0.5222 -0.8270 0.2083
vn -0.3166 -0.9423 0.1086
vn 0.5244 -0.8171 0.2393
vn 0.9110 0.1878 -0.3673
vn -0.9305 0.1668 -0.3261
vn 0.2807 -0.9510 0.1295
vn -0.3600 0.3547 0.8629
vn 0.5461 0.2864 0.7872
vn -0.0012 -0.1644 0.9864
vn -0.5476 0.3032 0.7799
vn 0.0891 -0.0627 0.9941
vn -0.1019 -0.0485 0.9936
vn 0.5462 0.2864 0.7872
vn 0.5461 0.2864 0.7873
vn 0.0000 -0.1680 0.9858
vn 0.0137 -0.0815 -0.9966
vn -0.1005 -0.2264 -0.9688
vn -0.2475 0.4179 0.8741
vn -0.2904 -0.3513 -0.8901
vn 0.2132 -0.2398 -0.9471
vn 0.2040 0.6923 0.6922
vn -0.1437 0.4994 0.8544
vn 0.1352 0.2815 0.9500
vn -0.1169 0.4913 0.8631
vn 0.8334 0.3219 -0.4492
vn 0.3619 -0.8958 0.2579
vn 0.1893 0.4858 0.8534
vn -0.5580 -0.7685 0.3131
vn 0.5613 -0.7657 0.3143
vn -0.3841 -0.8854 0.2618
vn -0.0978 0.5797 -0.8090
vn -0.8480 0.2610 0.4614
vn 0.7364 0.2849 0.6137
vn 0.7695 -0.0245 0.6382
vn -0.8781 -0.2004 0.4345
vn -0.3588 0.9243 -0.1300
vn 0.3608 0.9249 -0.1196
vn 0.2537 0.6735 -0.6943
vn -0.2559 0.6731 -0.6938
vn 0.2720 0.4612 -0.8446
vn -0.2827 0.4524 -0.8458
vn -0.3584 0.0834 0.9298
vn 0.2631 0.1940 0.9451
vn -0.9713 -0.1428 0.1901
vn -0.2155 -0.4978 -0.8401
vn -0.9578 -0.2817 0.0568
vn 0.9689 -0.2454 0.0310
vn 0.9794 -0.1728 0.1042
vn 0.9691 0.1586 0.1890
vn -0.9711 0.1471 0.1882
vn 0.9780 0.1376 0.1570
vn -0.9563 0.1761 0.2333
vn 0.9398 -0.1249 0.3181
vn 0.9568 0.0412 0.2879
vn -0.9531 -0.2856 0.1001
vn -0.9568 0.0412 0.2879
vn 0.2247 -0.4835 -0.8460
vn 0.9526 -0.2827 0.1121
vn -0.9396 -0.1260 0.3183
vn -0.3382 -0.9182 -0.2064
vn -0.3125 -0.9439 -0.1066
vn -0.3379 -0.9201 -0.1979
vn -0.2639 -0.9593 -0.1001
vn -0.3762 -0.9214 -0.0979
vn 0.3379 -0.9202 -0.1979
vn -0.4137 -0.9068 -0.0807
vn 0.4137 -0.9068 -0.0807
vn 0.3382 -0.9182 -0.2064
vn 0.3125 -0.9439 -0.1066
vn 0.3762 -0.9214 -0.0979
vn 0.2639 -0.9593 -0.1001
vn 0.2880 -0.0287 0.9572
vn -0.2934 -0.0448 0.9550
vn 0.1206 0.2800 0.9524
vn -0.2636 0.1876 0.9462
vn -0.3534 0.3094 0.8828
vn 0.3527 0.1012 0.9303
vn -0.9045 -0.0495 0.4235
vn 0.6731 -0.3388 -0.6573
vn -0.9477 -0.1805 -0.2630
vn -0.0589 -0.1424 0.9881
vn -0.9746 -0.0948 0.2028
vn 0.7183 0.1661 -0.6756
vn 0.8893 -0.0448 0.4551
vn -0.6698 -0.3501 -0.6548
vn 0.9477 -0.1805 -0.2630
vn 0.0589 -0.1424 0.9881
vn 0.9746 -0.0948 0.2028
vn -0.7183 0.1661 -0.6756
vn 0.9925 -0.1215 -0.0134
vn 0.9997 -0.0173 -0.0198
vn -0.9918 -0.1256 0.0235
vn -0.9997 -0.0173 -0.0198
vn -0.3599 0.3546 0.8630
vn -0.3600 0.3546 0.8629
vn 0.3620 0.3413 0.8675
vn -0.3599 0.3547 0.8630
vn -0.3599 0.3545 0.8630
vn -0.3597 0.3547 0.8630
vn -0.3600 0.3548 0.8629
vn 0.3619 0.3414 0.8675
vn -0.9005 -0.2965 -0.3180
vn -0.8433 0.3231 -0.4295
vn 0.9613 -0.2411 -0.1335
vn 0.8665 0.4813 -0.1324
usemtl Skin1
s off
f 2//1 6//1 3//1
f 1//2 6//2 4//2
f 2//3 4//3 5//3
f 6//4 5//4 7//4
f 4//5 6//5 7//5
f 5//6 4//6 7//6
f 13//7 9//7 10//7
f 8//8 13//8 10//8
f 9//9 11//9 8//9
f 13//10 14//10 12//10
f 11//11 14//11 13//11
f 12//12 14//12 11//12
f 2//13 5//13 6//13
f 1//14 3//14 6//14
f 2//15 1//15 4//15
f 13//16 12//16 9//16
f 8//17 11//17 13//17
f 9//18 12//18 11//18
f 15//19 17//19 16//19
f 18//20 127//20 25//20
f 29//21 131//21 22//21
f 19//22 132//22 24//22
f 20//23 125//23 126//23
f 21//24 129//24 130//24
f 29//25 27//25 24//25
f 29//26 128//26 23//26
f 18//27 36//27 16//27
f 19//28 17//28 35//28
f 37//29 38//29 36//29
f 35//30 39//30 37//30
f 29//31 23//31 27//31
f 18//32 23//32 127//32
f 29//21 24//21 131//21
f 19//33 26//33 132//33
f 126//23 22//23 20//23
f 20//34 25//34 125//34
f 130//35 26//35 21//35
f 21//24 22//24 129//24
f 29//26 22//26 128//26
usemtl Hair
f 23//36 28//36 27//36
f 28//37 24//37 27//37
f 31//38 124//38 21//38
f 33//39 161//39 31//39
f 32//40 31//40 160//40
f 31//41 32//41 33//41
f 33//42 32//42 34//42
f 33//43 121//43 161//43
f 32//44 160//44 120//44
f 25//45 121//45 123//45
f 33//46 36//46 119//46
f 32//47 118//47 35//47
f 32//48 120//48 118//48
f 32//49 35//49 34//49
f 36//50 33//50 34//50
f 35//51 37//51 34//51
f 34//52 37//52 36//52
f 23//53 16//53 28//53
f 28//54 17//54 24//54
f 118//55 122//55 19//55
f 35//56 118//56 19//56
f 119//57 18//57 123//57
f 119//58 36//58 18//58
f 118//59 120//59 122//59
f 120//60 21//60 26//60
f 119//61 121//61 33//61
f 20//62 121//62 25//62
f 122//63 120//63 26//63
f 19//64 122//64 26//64
f 123//65 18//65 25//65
f 123//66 121//66 119//66
f 20//67 124//67 31//67
f 21//68 124//68 22//68
f 20//69 22//69 124//69
f 137//70 126//70 125//70
f 129//71 140//71 130//71
f 137//70 138//70 126//70
f 129//71 139//71 140//71
f 120//72 160//72 21//72
f 31//73 161//73 20//73
f 161//74 121//74 20//74
f 160//75 31//75 21//75
usemtl Jacket1
f 45//76 172//76 47//76
f 45//77 47//77 48//77
f 45//78 48//78 46//78
f 44//79 48//79 58//79
f 44//80 59//80 48//80
f 42//81 60//81 59//81
f 41//82 58//82 57//82
f 39//83 52//83 42//83
f 38//84 41//84 51//84
f 38//85 164//85 53//85
f 39//86 165//86 52//86
f 43//87 168//87 55//87
f 43//88 56//88 170//88
f 58//89 41//89 44//89
f 59//90 44//90 42//90
f 60//91 48//91 59//91
f 43//92 61//92 56//92
f 55//93 62//93 43//93
f 57//94 63//94 41//94
f 41//95 64//95 51//95
f 65//96 66//96 63//96
f 64//97 66//97 67//97
f 69//98 60//98 42//98
f 70//99 42//99 52//99
f 72//100 71//100 69//100
f 70//101 72//101 69//101
f 46//102 76//102 172//102
f 57//103 58//103 48//103
f 57//104 65//104 63//104
f 41//105 63//105 64//105
f 64//106 67//106 68//106
f 65//107 68//107 66//107
f 64//108 63//108 66//108
f 69//109 71//109 60//109
f 70//110 69//110 42//110
f 74//111 73//111 70//111
f 72//112 74//112 71//112
f 70//113 73//113 72//113
f 55//114 168//114 51//114
f 170//115 56//115 52//115
f 172//116 76//116 47//116
f 172//117 45//117 46//117
f 38//118 51//118 164//118
f 39//119 54//119 165//119
usemtl Pants1
f 61//120 43//120 171//120
f 62//121 47//121 77//121
f 62//122 75//122 171//122
f 61//123 78//123 46//123
f 80//124 81//124 75//124
f 75//125 62//125 80//125
f 77//126 79//126 80//126
f 77//127 47//127 79//127
f 47//128 76//128 79//128
f 80//129 84//129 81//129
f 86//130 80//130 79//130
f 86//131 79//131 82//131
f 82//132 79//132 85//132
f 94//133 75//133 95//133
f 75//134 94//134 61//134
f 78//135 94//135 93//135
f 78//136 93//136 46//136
f 46//137 93//137 76//137
f 94//138 95//138 98//138
f 100//139 93//139 94//139
f 100//140 96//140 93//140
f 96//141 99//141 93//141
f 171//142 43//142 62//142
f 171//143 75//143 61//143
usemtl Shoes
f 87//144 84//144 83//144
f 90//145 82//145 85//145
f 90//146 91//146 89//146
f 82//147 89//147 83//147
f 88//148 92//148 84//148
f 83//149 89//149 91//149
f 83//150 91//150 87//150
f 88//151 91//151 92//151
f 84//152 92//152 90//152
f 84//153 90//153 85//153
f 88//154 87//154 91//154
f 87//155 88//155 84//155
f 90//156 89//156 82//156
f 90//157 92//157 91//157
f 101//158 97//158 98//158
f 104//159 99//159 96//159
f 104//160 103//160 105//160
f 96//161 97//161 103//161
f 102//162 98//162 106//162
f 97//163 105//163 103//163
f 97//164 101//164 105//164
f 102//165 106//165 105//165
f 98//166 104//166 106//166
f 98//167 99//167 104//167
f 102//168 105//168 101//168
f 101//169 98//169 102//169
f 104//170 96//170 103//170
f 104//171 105//171 106//171
usemtl Shirt
f 30//172 54//172 107//172
f 38//173 53//173 107//173
f 39//174 107//174 54//174
f 107//175 53//175 30//175
usemtl Jilet
f 43//176 166//176 167//176
f 30//177 169//177 54//177
f 169//178 166//178 43//178
f 167//179 30//179 53//179
f 30//180 166//180 169//180
f 167//181 166//181 30//181
usemtl Skin2
f 16//182 23//182 18//182
f 24//183 17//183 19//183
f 25//184 133//184 137//184
f 22//71 135//71 139//71
f 28//185 157//185 158//185
f 16//186 36//186 38//186
f 35//187 17//187 39//187
f 16//188 38//188 15//188
f 38//189 107//189 15//189
f 17//190 15//190 39//190
f 37//191 39//191 40//191
f 38//192 37//192 40//192
f 15//193 107//193 39//193
f 138//194 134//194 22//194
f 128//70 127//70 23//70
f 136//195 132//195 26//195
f 132//71 131//71 24//71
f 138//194 133//194 134//194
f 139//71 136//71 140//71
f 16//196 159//196 157//196
f 25//184 127//184 133//184
f 137//197 125//197 25//197
f 22//71 131//71 135//71
f 139//71 129//71 22//71
f 159//198 17//198 28//198
f 28//199 16//199 157//199
f 158//185 159//185 28//185
f 22//70 126//70 138//70
f 134//70 128//70 22//70
f 26//200 130//200 140//200
f 140//201 136//201 26//201
f 138//70 137//70 133//70
f 139//71 135//71 136//71
f 16//202 17//202 159//202
usemtl Tie
f 107//203 108//203 113//203
f 107//204 112//204 110//204
f 107//205 116//205 114//205
f 110//206 112//206 111//206
f 108//207 109//207 113//207
f 107//208 115//208 117//208
f 115//209 111//209 117//209
f 114//210 116//210 109//210
f 111//211 115//211 110//211
f 109//212 108//212 114//212
f 107//213 117//213 112//213
f 110//214 115//214 107//214
f 113//215 109//215 116//215
f 112//216 117//216 111//216
f 107//217 113//217 116//217
f 108//218 107//218 114//218
usemtl Jacket2
f 163//219 54//219 169//219
f 162//220 167//220 53//220
f 38//221 162//221 53//221
f 39//222 54//222 163//222
usemtl Jacket3
f 38//223 40//223 41//223
f 40//224 39//224 42//224
f 42//225 44//225 40//225
f 41//226 40//226 44//226
f 48//227 50//227 46//227
f 48//228 47//228 49//228
f 51//229 168//229 167//229
f 169//230 52//230 165//230
f 49//231 55//231 57//231
f 57//232 48//232 49//232
f 51//233 57//233 55//233
f 60//234 52//234 56//234
f 50//235 60//235 56//235
f 50//236 61//236 46//236
f 49//237 47//237 62//237
f 50//238 56//238 61//238
f 55//239 49//239 62//239
f 57//240 64//240 65//240
f 64//241 68//241 65//241
f 60//242 70//242 52//242
f 74//243 70//243 71//243
f 60//244 50//244 48//244
f 57//245 51//245 64//245
f 60//246 71//246 70//246
f 3//247 1//247 68//247
f 67//248 3//248 68//248
f 1//249 66//249 68//249
f 2//250 3//250 67//250
f 66//251 1//251 67//251
f 72//252 8//252 74//252
f 1//253 2//253 67//253
f 9//254 8//254 73//254
f 8//255 10//255 74//255
f 73//256 74//256 10//256
f 8//257 72//257 73//257
f 9//258 73//258 10//258
f 170//259 169//259 43//259
f 167//260 168//260 43//260
f 167//261 53//261 164//261
f 164//262 51//262 167//262
f 165//263 54//263 169//263
f 169//264 170//264 52//264
usemtl Pants2
f 62//265 77//265 80//265
f 76//266 81//266 79//266
f 83//267 86//267 82//267
f 84//268 80//268 83//268
f 83//269 80//269 86//269
f 85//270 79//270 81//270
f 61//271 94//271 78//271
f 76//272 93//272 95//272
f 97//273 96//273 100//273
f 98//274 97//274 94//274
f 97//275 100//275 94//275
f 99//276 95//276 93//276
usemtl Pants3
f 76//277 75//277 81//277
f 85//278 81//278 84//278
f 76//279 95//279 75//279
f 99//280 98//280 95//280
usemtl White
f 134//70 133//70 144//70
f 136//71 135//71 148//71
f 143//70 142//70 127//70
f 132//71 146//71 131//71
f 151//281 149//281 152//281
f 154//71 156//71 155//71
f 133//70 127//70 141//70
f 144//70 143//70 134//70
f 133//70 141//70 144//70
f 143//70 128//70 134//70
f 135//71 146//71 145//71
f 148//71 132//71 136//71
f 135//71 145//71 148//71
f 127//70 128//70 143//70
f 142//70 141//70 127//70
f 132//71 148//71 147//71
f 146//71 135//71 131//71
f 132//71 147//71 146//71
f 151//282 150//282 149//282
f 154//283 153//283 156//283
usemtl Black
f 150//194 143//194 144//194
f 147//71 153//71 154//71
f 152//284 141//284 142//284
f 156//71 145//71 155//71
f 144//285 141//285 149//285
f 149//281 150//281 144//281
f 141//281 152//281 149//281
f 155//71 146//71 147//71
f 147//71 148//71 153//71
f 154//71 155//71 147//71
f 142//70 143//70 150//70
f 151//286 152//286 142//286
f 142//287 150//287 151//287
f 156//283 153//283 148//283
f 145//71 146//71 155//71
f 156//288 148//288 145//288
usemtl Skin3
f 159//185 158//185 157//185
usemtl Jacket4
f 164//289 167//289 162//289
f 38//290 164//290 162//290
f 165//291 163//291 169//291
f 39//292 163//292 165//292
