# Blender v2.78 (sub 0) OBJ File: 'H2SO4.blend'
# www.blender.org
mtllib H2SO4.mtl
o Cylinder.004_Cylinder.001
v -0.213843 6.970531 0.060111
v -0.167229 8.822079 0.060111
v 0.233311 6.970531 0.169285
v 0.262071 8.822079 0.184658
v 0.575374 6.970531 0.457041
v 0.601271 8.822079 0.495798
v 0.733025 6.970531 0.889490
v 0.736221 8.822079 0.921943
v 0.703803 6.970531 1.251092
v 0.694336 8.822079 1.282298
v 0.579216 6.970531 1.511169
v 0.411822 6.970531 1.705111
v 0.517738 8.822079 1.599195
v 0.163742 6.970531 1.852140
v 0.233311 8.822079 1.824388
v -0.083190 6.970531 1.920398
v -0.115643 8.822079 1.923594
v -0.371146 6.970531 1.904822
v -0.371146 8.822079 1.904822
v -0.614384 6.970531 1.824388
v -0.643144 8.822079 1.809016
v -0.898811 6.970531 1.599195
v -0.919499 8.822079 1.573987
v -1.075409 6.970531 1.282298
v -1.084875 8.822079 1.251092
v -1.117294 6.970531 0.921942
v -1.114097 8.822079 0.889489
v -1.045839 6.970531 0.642557
v -1.045839 8.822079 0.642557
v -0.919498 6.970531 0.419685
v -0.898810 8.822079 0.394477
v -0.643142 6.970531 0.184657
v -0.614382 8.822079 0.169284
v -0.263919 1.962117 -3.234875
v -0.117150 7.791965 -3.234875
v 1.144005 1.962117 -2.891126
v 1.234559 7.791965 -2.842723
v 2.221037 1.962117 -1.985088
v 2.302577 7.791965 -1.863053
v 2.717421 1.962117 -0.623463
v 2.727485 7.791965 -0.521279
v 2.625412 1.962117 0.515091
v 2.595605 7.791965 0.613348
v 2.233135 1.962117 1.333978
v 1.706072 1.962117 1.944631
v 2.039561 7.791965 1.611141
v 0.924956 1.962117 2.407572
v 1.144004 7.791965 2.320192
v 0.147459 1.962117 2.622490
v 0.045275 7.791965 2.632555
v -0.759211 1.962117 2.573448
v -0.759211 7.791965 2.573448
v -1.525079 1.962117 2.320191
v -1.615633 7.791965 2.271789
v -2.420635 1.962117 1.611140
v -2.485773 7.791965 1.531769
v -2.976679 1.962117 0.613348
v -3.006485 7.791965 0.515091
v -3.108558 1.962117 -0.521282
v -3.098493 7.791965 -0.623466
v -2.883574 1.962117 -1.400963
v -2.883574 7.791965 -1.400963
v -2.485770 1.962117 -2.102706
v -2.420631 7.791965 -2.182078
v -1.615628 1.962117 -2.842726
v -1.525073 7.791965 -2.891128
v -0.359253 7.511034 -2.575043
v -0.021820 7.511034 -2.575043
v -0.359253 7.445511 -2.906053
v -0.021820 7.445511 -2.906053
v -0.359253 8.230775 -3.061496
v -0.359253 8.296298 -2.730487
v -0.021820 8.296298 -2.730487
v -0.021820 8.230775 -3.061496
v -0.327926 8.485469 -2.940293
v -0.359253 8.518301 -2.774432
v -0.021820 8.518301 -2.774432
v -0.053147 8.485469 -2.940293
v -0.359253 8.523005 -1.585220
v -0.021820 8.523005 -1.585220
v -0.359253 8.745008 -1.629166
v -0.021820 8.745008 -1.629166
v -0.359253 8.582909 -1.282601
v -0.021820 8.582909 -1.282601
v -0.327926 8.772220 -1.491696
v -0.053147 8.772220 -1.491696
v -0.359253 7.633656 -1.409172
v -0.021820 7.633656 -1.409172
v -0.359253 7.693559 -1.106554
v -0.021820 7.693559 -1.106554
vn 0.2786 0.0036 -0.9604
vn 0.7570 -0.0059 0.6534
vn 0.5098 -0.0063 0.8602
vn 0.6760 0.0060 -0.7369
vn 0.9533 0.0036 -0.3019
vn 0.9933 0.0031 0.1155
vn 0.8735 0.0059 0.4868
vn 0.2664 0.0030 0.9638
vn 0.6207 0.0093 0.7840
vn -0.0733 0.0000 0.9973
vn -0.3322 0.0027 0.9432
vn -0.6478 0.0031 0.7618
vn -0.8900 0.0031 0.4559
vn -0.9967 0.0031 0.0805
vn -0.9639 0.0000 -0.2664
vn -0.8603 0.0027 -0.5098
vn -0.6207 0.0031 -0.7840
vn 0.0000 1.0000 0.0000
vn -0.2372 0.0060 -0.9714
vn 0.0000 -1.0000 -0.0000
vn 0.0000 -0.9810 0.1942
vn -0.9906 0.1345 -0.0266
vn 1.0000 0.0000 0.0000
vn -1.0000 0.0000 0.0000
vn 0.0000 -0.1942 -0.9810
vn 0.0000 0.1942 0.9810
vn 0.0000 0.9810 -0.1942
vn 0.0000 0.4297 -0.9030
vn 0.9833 -0.0354 -0.1787
vn -0.9759 0.0424 0.2140
vn 0.0000 0.7413 0.6712
vn 0.9906 0.1345 -0.0266
vn 0.2372 -0.0060 -0.9714
vn 0.6437 -0.0036 -0.7652
vn 0.9395 -0.0060 -0.3425
vn 0.9967 -0.0031 0.0805
vn 0.9019 -0.0027 0.4320
vn 0.2735 0.0041 0.9619
vn -0.0540 -0.0027 0.9985
vn -0.3140 0.0000 0.9494
vn -0.6207 -0.0031 0.7840
vn -0.8735 -0.0031 0.4868
vn -0.9933 -0.0031 0.1155
vn -0.9688 -0.0027 -0.2478
vn -0.8699 0.0000 -0.4932
vn -0.6478 -0.0031 -0.7618
vn -0.2786 -0.0036 -0.9604
vn -0.9833 -0.0354 -0.1787
vn 0.9759 0.0424 0.2140
usemtl Material.008
s off
f 36//1 35//1 37//1
f 46//2 45//2 44//2
f 48//3 47//3 45//3
f 38//4 37//4 39//4
f 40//5 39//5 41//5
f 42//6 41//6 43//6
f 44//7 43//7 46//7
f 47//8 50//8 49//8
f 46//9 48//9 45//9
f 51//10 50//10 52//10
f 53//11 52//11 54//11
f 55//12 54//12 56//12
f 57//13 56//13 58//13
f 59//14 58//14 60//14
f 61//15 60//15 62//15
f 63//16 62//16 64//16
f 65//17 64//17 66//17
f 52//18 62//18 56//18
f 34//19 66//19 35//19
f 44//20 61//20 36//20
f 69//21 68//21 67//21
f 72//22 75//22 71//22
f 70//23 73//23 68//23
f 69//24 72//24 71//24
f 69//25 74//25 70//25
f 68//26 72//26 67//26
f 77//27 75//27 76//27
f 71//28 78//28 74//28
f 76//27 82//27 77//27
f 73//29 78//29 77//29
f 79//30 85//30 81//30
f 73//21 79//21 72//21
f 72//24 81//24 76//24
f 77//23 80//23 73//23
f 84//31 85//31 83//31
f 80//25 87//25 79//25
f 80//32 86//32 84//32
f 81//27 86//27 82//27
f 88//21 89//21 87//21
f 84//23 88//23 80//23
f 79//24 89//24 83//24
f 83//26 90//26 84//26
f 36//33 34//33 35//33
f 38//34 36//34 37//34
f 40//35 38//35 39//35
f 42//36 40//36 41//36
f 44//37 42//37 43//37
f 47//38 48//38 50//38
f 51//39 49//39 50//39
f 53//40 51//40 52//40
f 55//41 53//41 54//41
f 57//42 55//42 56//42
f 59//43 57//43 58//43
f 61//44 59//44 60//44
f 63//45 61//45 62//45
f 65//46 63//46 64//46
f 35//18 66//18 37//18
f 64//18 62//18 66//18
f 60//18 58//18 62//18
f 56//18 54//18 52//18
f 52//18 50//18 48//18
f 48//18 46//18 52//18
f 43//18 41//18 52//18
f 39//18 37//18 41//18
f 66//18 62//18 37//18
f 58//18 56//18 62//18
f 52//18 46//18 43//18
f 41//18 62//18 52//18
f 62//18 41//18 37//18
f 34//47 65//47 66//47
f 38//20 40//20 36//20
f 42//20 44//20 40//20
f 45//20 47//20 44//20
f 49//20 51//20 47//20
f 53//20 55//20 51//20
f 57//20 59//20 61//20
f 61//20 63//20 65//20
f 65//20 34//20 36//20
f 36//20 40//20 44//20
f 44//20 47//20 51//20
f 51//20 55//20 57//20
f 57//20 61//20 51//20
f 65//20 36//20 61//20
f 44//20 51//20 61//20
f 69//21 70//21 68//21
f 72//48 76//48 75//48
f 70//23 74//23 73//23
f 69//24 67//24 72//24
f 69//25 71//25 74//25
f 68//26 73//26 72//26
f 77//27 78//27 75//27
f 71//28 75//28 78//28
f 76//27 81//27 82//27
f 73//32 74//32 78//32
f 79//22 83//22 85//22
f 73//21 80//21 79//21
f 72//24 79//24 81//24
f 77//23 82//23 80//23
f 84//31 86//31 85//31
f 80//25 88//25 87//25
f 80//49 82//49 86//49
f 81//27 85//27 86//27
f 88//21 90//21 89//21
f 84//23 90//23 88//23
f 79//24 87//24 89//24
f 83//26 89//26 90//26
usemtl Material.011
f 3//1 2//1 4//1
f 13//2 12//2 11//2
f 15//3 14//3 12//3
f 5//4 4//4 6//4
f 7//5 6//5 8//5
f 9//6 8//6 10//6
f 11//7 10//7 13//7
f 14//8 17//8 16//8
f 13//9 15//9 12//9
f 18//10 17//10 19//10
f 20//11 19//11 21//11
f 22//12 21//12 23//12
f 24//13 23//13 25//13
f 26//14 25//14 27//14
f 28//15 27//15 29//15
f 30//16 29//16 31//16
f 32//17 31//17 33//17
f 19//18 29//18 23//18
f 1//19 33//19 2//19
f 11//20 28//20 3//20
f 3//33 1//33 2//33
f 5//34 3//34 4//34
f 7//35 5//35 6//35
f 9//36 7//36 8//36
f 11//37 9//37 10//37
f 14//38 15//38 17//38
f 18//39 16//39 17//39
f 20//40 18//40 19//40
f 22//41 20//41 21//41
f 24//42 22//42 23//42
f 26//43 24//43 25//43
f 28//44 26//44 27//44
f 30//45 28//45 29//45
f 32//46 30//46 31//46
f 2//18 33//18 4//18
f 31//18 29//18 33//18
f 27//18 25//18 29//18
f 23//18 21//18 19//18
f 19//18 17//18 15//18
f 15//18 13//18 19//18
f 10//18 8//18 19//18
f 6//18 4//18 8//18
f 33//18 29//18 4//18
f 25//18 23//18 29//18
f 19//18 13//18 10//18
f 8//18 29//18 19//18
f 29//18 8//18 4//18
f 1//47 32//47 33//47
f 5//20 7//20 3//20
f 9//20 11//20 7//20
f 12//20 14//20 11//20
f 16//20 18//20 14//20
f 20//20 22//20 18//20
f 24//20 26//20 28//20
f 28//20 30//20 32//20
f 32//20 1//20 3//20
f 3//20 7//20 11//20
f 11//20 14//20 18//20
f 18//20 22//20 24//20
f 24//20 28//20 18//20
f 32//20 3//20 28//20
f 11//20 18//20 28//20
